<?xml version="1.0" encoding="utf-8"?>
<svg width="479px" height="472px" viewbox="0 0 479 472" version="1.1" xmlns:xlink="http://www.w3.org/1999/xlink" xmlns="http://www.w3.org/2000/svg">
  <defs>
    <filter filterUnits="userSpaceOnUse" color-interpolation-filters="sRGB" id="filter_1">
      <feFlood flood-opacity="0" result="BackgroundImageFix" />
      <feColorMatrix in="SourceAlpha" type="matrix" values="0 0 0 0 0 0 0 0 0 0 0 0 0 0 0 0 0 0 127 0" />
      <feOffset dx="0" dy="2" />
      <feGaussianBlur stdDeviation="5" />
      <feColorMatrix type="matrix" values="0 0 0 0 1 0 0 0 0 1 0 0 0 0 1 0 0 0 1 0" />
      <feBlend mode="normal" in2="BackgroundImageFix" result="effect0_dropShadow" />
      <feBlend mode="normal" in="SourceGraphic" in2="effect0_dropShadow" result="shape" />
    </filter>
  </defs>
  <g id="Logo" transform="translate(12.5 12.5)">
    <path d="M75.999 0L353.001 0Q354.867 0 356.73 0.0915441Q358.594 0.183088 360.45 0.365956Q362.307 0.548824 364.152 0.822574Q365.998 1.09633 367.828 1.4603Q369.658 1.82427 371.467 2.27759Q373.277 2.73092 375.062 3.27249Q376.848 3.81407 378.604 4.44259Q380.361 5.07112 382.085 5.78508Q383.808 6.49904 385.495 7.29672Q387.181 8.09439 388.827 8.97387Q390.472 9.85334 392.072 10.8125Q393.673 11.7716 395.224 12.8081Q396.775 13.8447 398.274 14.956Q399.772 16.0674 401.214 17.251Q402.656 18.4345 404.039 19.6875Q405.421 20.9404 406.74 22.2596Q408.06 23.5788 409.313 24.9612Q410.565 26.3436 411.749 27.7857Q412.933 29.2279 414.044 30.7264Q415.155 32.225 416.192 33.7762Q417.228 35.3275 418.188 36.9277Q419.147 38.5279 420.026 40.1733Q420.906 41.8187 421.703 43.5052Q422.501 45.1918 423.215 46.9154Q423.929 48.6391 424.557 50.3957Q425.186 52.1523 425.727 53.9377Q426.269 55.723 426.722 57.5327Q427.176 59.3425 427.54 61.1723Q427.904 63.0022 428.177 64.8476Q428.451 66.6931 428.634 68.5498Q428.817 70.4065 428.908 72.2699Q429 74.1333 429 75.999L429 371.001Q429 372.867 428.908 374.73Q428.817 376.594 428.634 378.45Q428.451 380.307 428.177 382.152Q427.904 383.998 427.54 385.828Q427.176 387.657 426.722 389.467Q426.269 391.277 425.727 393.062Q425.186 394.848 424.557 396.604Q423.929 398.361 423.215 400.084Q422.501 401.808 421.703 403.495Q420.906 405.181 420.026 406.827Q419.147 408.472 418.188 410.072Q417.228 411.672 416.192 413.224Q415.155 414.775 414.044 416.273Q412.933 417.772 411.749 419.214Q410.565 420.656 409.313 422.039Q408.06 423.421 406.74 424.74Q405.421 426.06 404.039 427.312Q402.656 428.565 401.214 429.749Q399.772 430.932 398.274 432.044Q396.775 433.155 395.224 434.192Q393.673 435.228 392.072 436.187Q390.472 437.147 388.827 438.026Q387.181 438.906 385.495 439.703Q383.808 440.501 382.085 441.215Q380.361 441.929 378.604 442.557Q376.848 443.186 375.062 443.727Q373.277 444.269 371.467 444.722Q369.657 445.176 367.828 445.54Q365.998 445.904 364.152 446.177Q362.307 446.451 360.45 446.634Q358.594 446.817 356.73 446.908Q354.867 447 353.001 447L75.999 447Q74.1333 447 72.2699 446.908Q70.4065 446.817 68.5498 446.634Q66.6931 446.451 64.8476 446.177Q63.0022 445.904 61.1723 445.54Q59.3425 445.176 57.5327 444.722Q55.723 444.269 53.9377 443.727Q52.1523 443.186 50.3957 442.557Q48.6391 441.929 46.9154 441.215Q45.1918 440.501 43.5052 439.703Q41.8187 438.906 40.1733 438.026Q38.5279 437.147 36.9277 436.187Q35.3275 435.228 33.7762 434.192Q32.225 433.155 30.7264 432.044Q29.2279 430.932 27.7857 429.749Q26.3436 428.565 24.9612 427.312Q23.5788 426.06 22.2596 424.74Q20.9404 423.421 19.6875 422.039Q18.4345 420.656 17.251 419.214Q16.0674 417.772 14.956 416.273Q13.8447 414.775 12.8081 413.224Q11.7716 411.672 10.8125 410.072Q9.85334 408.472 8.97387 406.827Q8.09439 405.181 7.29672 403.495Q6.49904 401.808 5.78508 400.084Q5.07112 398.361 4.44259 396.604Q3.81407 394.848 3.27249 393.062Q2.73092 391.277 2.27759 389.467Q1.82427 387.657 1.4603 385.828Q1.09633 383.998 0.822574 382.152Q0.548824 380.307 0.365956 378.45Q0.183088 376.594 0.0915441 374.73Q0 372.867 0 371.001L0 75.999Q0 74.1333 0.0915441 72.2699Q0.183088 70.4065 0.365956 68.5498Q0.548824 66.6931 0.822574 64.8476Q1.09633 63.0022 1.4603 61.1723Q1.82427 59.3425 2.27759 57.5327Q2.73092 55.723 3.27249 53.9377Q3.81407 52.1523 4.44259 50.3957Q5.07112 48.6391 5.78508 46.9154Q6.49904 45.1918 7.29672 43.5052Q8.09439 41.8187 8.97387 40.1733Q9.85334 38.5279 10.8125 36.9277Q11.7716 35.3275 12.8081 33.7762Q13.8447 32.225 14.956 30.7264Q16.0674 29.2279 17.251 27.7857Q18.4345 26.3436 19.6875 24.9612Q20.9404 23.5788 22.2596 22.2596Q23.5788 20.9404 24.9612 19.6875Q26.3436 18.4345 27.7857 17.251Q29.2279 16.0674 30.7264 14.956Q32.225 13.8447 33.7762 12.8081Q35.3275 11.7716 36.9277 10.8125Q38.5279 9.85334 40.1733 8.97387Q41.8187 8.09439 43.5052 7.29672Q45.1918 6.49904 46.9154 5.78508Q48.6391 5.07112 50.3957 4.44259Q52.1523 3.81407 53.9377 3.27249Q55.723 2.73092 57.5327 2.27759Q59.3425 1.82427 61.1723 1.4603Q63.0022 1.09633 64.8476 0.822574Q66.6931 0.548824 68.5498 0.365956Q70.4065 0.183088 72.2699 0.0915441Q74.1333 0 75.999 0Z" transform="translate(12.999878 0)" id="Rectangle-2" fill="#1F1A1A" fill-rule="evenodd" stroke="#FF0000" stroke-width="25" filter="url(#filter_1)" />
    <g id="FS" fill="#FF0000" transform="translate(45 9.599976)">
      <path d="M227.648 264.92Q244.064 272.84 264.512 272.84Q284.672 272.84 302.384 265.208Q320.096 257.576 331.04 243.464Q341.984 229.352 341.984 210.92Q341.984 191.048 328.304 178.52Q314.624 165.992 291.584 158.216Q274.304 152.456 263.936 148.28Q253.568 144.104 244.352 139.208Q234.56 133.736 229.952 128.552Q225.344 123.368 225.632 116.456Q226.208 103.496 236.576 96.152Q246.944 88.808 268.256 88.808Q280.64 88.808 291.152 92.984Q301.664 97.16 307.856 103.928Q314.048 110.696 314.048 117.896Q314.048 124.808 318.08 128.984Q322.112 133.16 327.872 133.16Q333.92 133.16 338.096 128.984Q342.272 124.808 342.272 117.32Q342.272 102.632 333.056 89.672Q323.84 76.712 307.136 68.936Q290.432 61.16 269.12 61.16Q248.672 61.16 232.112 69.368Q215.552 77.576 206.336 90.824Q197.12 104.072 197.12 118.472Q197.12 134.888 205.904 146.984Q214.688 159.08 232.544 168.008Q244.928 174.056 273.44 183.56L282.368 186.728Q296.768 191.336 305.12 197.24Q313.472 203.144 313.472 211.784Q313.472 226.184 301.376 235.4Q289.28 244.616 268.256 244.616Q224.48 244.616 220.448 207.464Q219.584 201.704 215.84 198.824Q212.096 195.944 207.488 195.944Q201.44 195.944 196.976 200.12Q192.512 204.296 192.512 211.208Q192.512 229.064 201.872 243.032Q211.232 257 227.648 264.92ZM37.424 204.296Q36.992 244.904 36.992 256.136Q36.992 262.184 41.168 266.36Q45.344 270.536 51.392 270.536Q57.44 270.536 61.616 266.36Q65.792 262.184 65.792 256.136Q65.792 242.312 66.08 216.536Q66.368 190.76 66.368 181.256Q85.664 181.256 152.48 180.392Q158.24 180.392 162.416 176.072Q166.592 171.752 166.592 165.848Q166.592 159.944 162.272 155.768Q157.952 151.592 151.904 151.592Q85.376 152.456 66.368 152.456Q66.08 119.912 64.352 92.84Q128.864 91.688 165.152 93.128Q171.2 93.416 175.52 89.384Q179.84 85.352 180.128 79.304Q180.416 73.256 176.384 68.936Q172.352 64.616 166.304 64.328Q129.152 62.888 49.088 64.328Q43.04 64.328 39.008 68.648Q34.976 72.968 34.976 79.016Q34.976 79.88 35.264 81.032Q34.976 82.76 34.976 84.488Q36.992 111.56 37.424 137.624Q37.856 163.688 37.424 204.296Z" />
    </g>
    <path d="M0 0.5L331 0" transform="translate(61.499878 342.5)" id="Line" fill="#D3D3D3" fill-rule="evenodd" stroke="#FFE4E4" stroke-width="5" stroke-linecap="round" />
    <g id="First-Here" fill="#FFFFFF" transform="translate(0 357)">
      <path d="M154.256 15.868Q155.072 16.684 155.072 17.884Q155.072 19.084 154.256 19.9Q153.44 20.716 152.24 20.716Q151.04 20.716 150.224 19.9Q149.408 19.084 149.408 17.884Q149.408 16.684 150.224 15.868Q151.04 15.052 152.264 15.028Q153.488 15.004 154.256 15.868ZM122.672 47.356Q122.672 45.484 122.744 38.716Q122.816 31.948 122.744 27.604Q122.672 23.26 122.336 18.748Q122.336 18.46 122.384 18.172Q122.336 17.98 122.336 17.836Q122.336 16.828 123.008 16.108Q123.68 15.388 124.688 15.388Q138.032 15.148 144.224 15.388Q145.232 15.436 145.904 16.156Q146.576 16.876 146.528 17.884Q146.48 18.892 145.76 19.564Q145.04 20.236 144.032 20.188Q137.984 19.948 127.232 20.14Q127.52 24.652 127.568 30.076Q130.736 30.076 141.824 29.932Q142.832 29.932 143.552 30.628Q144.272 31.324 144.272 32.308Q144.272 33.292 143.576 34.012Q142.88 34.732 141.92 34.732Q130.784 34.876 127.568 34.876Q127.568 36.46 127.52 40.756Q127.472 45.052 127.472 47.356Q127.472 48.364 126.776 49.06Q126.08 49.756 125.072 49.756Q124.064 49.756 123.368 49.06Q122.672 48.364 122.672 47.356ZM236.048 47.308Q236.048 48.316 235.328 48.988C234.848 49.436 234.272 49.66 233.6 49.66C232.928 49.66 232.368 49.42 231.92 48.94Q231.248 48.22 231.248 47.212Q231.344 42.796 231.104 33.028Q230.864 23.26 231.056 17.596Q231.104 16.636 231.824 15.94Q232.544 15.244 233.528 15.292Q234.512 15.34 235.208 16.06Q235.904 16.78 235.856 17.788Q235.712 22.924 235.856 29.932Q247.184 29.548 252.464 29.596Q252.416 23.068 252.704 17.692Q252.752 16.684 253.496 16.036Q254.24 15.388 255.248 15.436Q256.256 15.484 256.904 16.228Q257.552 16.972 257.504 17.98Q257.264 23.596 257.216 27.532Q257.216 32.284 257.336 38.212Q257.456 44.14 257.456 47.26Q257.456 48.268 256.76 48.964C256.296 49.428 255.728 49.66 255.056 49.66C254.384 49.66 253.816 49.428 253.352 48.964Q252.656 48.268 252.656 47.26Q252.656 45.58 252.512 34.396Q247.328 34.348 235.952 34.732Q236.144 42.844 236.048 47.308ZM208.856 49.228Q209.744 49.42 210.032 49.516Q210.992 49.852 211.88 49.396Q212.768 48.94 213.08 48.004Q213.392 47.068 212.936 46.18Q212.48 45.292 211.568 45.004Q210.656 44.668 209.864 44.452Q209.072 44.236 208.784 44.188Q208.496 44.14 208.232 43.972Q207.968 43.804 207.872 43.636Q207.776 43.468 207.584 43.036Q207.392 42.604 207.296 39.724Q207.152 36.892 207.248 32.38Q207.248 31.324 207.296 29.02L209.408 28.924Q210.416 28.828 211.04 28.084Q211.664 27.34 211.592 26.332Q211.52 25.324 210.776 24.7Q210.032 24.076 209.024 24.124L207.44 24.22L207.584 19.66Q207.632 18.652 206.96 17.932Q206.288 17.212 205.28 17.164Q204.272 17.116 203.552 17.788Q202.832 18.46 202.784 19.468Q202.688 22.06 202.64 24.604L201.536 24.7Q200.576 24.844 199.952 25.612Q199.328 26.38 199.448 27.364Q199.568 28.348 200.336 28.972Q201.104 29.596 202.112 29.5L202.496 29.452Q202.448 31.468 202.448 32.332Q202.352 36.94 202.496 39.868Q202.64 43.66 203.168 44.956Q203.648 46.06 204.32 46.852Q204.992 47.644 205.832 48.1Q206.672 48.556 207.32 48.796Q207.968 49.036 208.856 49.228ZM161.84 49.012C162.32 49.444 162.88 49.66 163.52 49.66Q164.48 49.66 165.2 49.012Q165.92 48.364 165.92 47.26L165.872 39.724L165.776 33.724Q165.776 32.956 166.424 32.14Q167.072 31.324 167.936 30.748Q169.472 29.644 173.504 29.644Q174.608 29.644 175.184 28.996Q175.76 28.348 175.76 27.388Q175.76 25.9 174.8 25.324Q173.84 24.748 172.064 24.748Q169.712 24.748 167.744 25.948Q166.304 26.764 165.776 27.916L165.776 26.476Q165.776 25.324 165.032 24.676Q164.288 24.028 163.28 24.028Q162.32 24.028 161.648 24.652Q160.976 25.276 160.976 26.38L160.976 29.212Q160.976 34.156 161.024 37.468L161.12 47.26Q161.12 48.364 161.84 49.012ZM295.856 49.66Q294.896 49.66 294.176 49.012Q293.456 48.364 293.456 47.26L293.36 37.468Q293.312 34.156 293.312 29.212L293.312 26.38Q293.312 25.276 293.984 24.652Q294.656 24.028 295.616 24.028Q296.624 24.028 297.368 24.676Q298.112 25.324 298.112 26.476L298.112 27.916Q298.64 26.764 300.08 25.948Q302.048 24.748 304.4 24.748Q306.176 24.748 307.136 25.324Q308.096 25.9 308.096 27.388Q308.096 28.348 307.52 28.996Q306.944 29.644 305.84 29.644Q301.808 29.644 300.272 30.748Q299.408 31.324 298.76 32.14Q298.112 32.956 298.112 33.724L298.208 39.724L298.256 47.26Q298.256 48.364 297.536 49.012C297.056 49.444 296.496 49.66 295.856 49.66ZM149.792 47.356Q149.696 43.756 149.816 36.316Q149.936 28.876 149.936 26.572Q149.936 25.564 150.632 24.868Q151.328 24.172 152.336 24.172Q153.344 24.172 154.04 24.868Q154.736 25.564 154.736 26.572Q154.736 28.876 154.616 36.268Q154.496 43.66 154.592 47.26Q154.592 48.268 153.92 48.988Q153.248 49.708 152.24 49.708Q151.232 49.708 150.512 49.036Q149.792 48.364 149.792 47.356ZM183.44 49.66Q179.888 49.036 178.304 46.78Q177.536 45.772 177.2 44.092L177.008 43.036Q176.912 42.556 176.816 42.268Q176.528 41.356 177.008 40.492Q177.488 39.628 178.448 39.388Q179.408 39.148 180.272 39.58Q181.136 40.012 181.424 40.972Q181.568 41.5 181.712 42.172Q181.76 42.412 181.784 42.628Q181.808 42.844 181.952 43.372Q182.096 43.996 182.624 44.428Q183.2 44.956 184.352 45.1Q186.272 45.484 188.48 45.004Q190.64 44.524 191.84 43.612Q192.704 42.844 192.56 42.028Q192.416 40.684 190.88 40.012Q189.92 39.58 185.888 38.86Q181.712 38.044 179.984 36.748Q176.816 34.396 177.92 29.74Q178.592 27.052 180.68 25.78Q182.768 24.508 185.312 24.364Q187.472 24.268 189.704 24.868Q191.936 25.468 193.52 26.524Q194.048 26.908 194.624 27.436Q195.2 27.964 195.752 28.588Q196.304 29.212 196.4 29.26Q197.12 29.98 197.12 30.916Q197.12 31.852 196.424 32.548Q195.728 33.244 194.744 33.244Q193.76 33.244 193.04 32.572Q192.56 32.14 192.08 31.66L191.408 30.844Q191.12 30.604 190.736 30.364Q189.824 29.788 188.384 29.38Q186.944 28.972 185.552 29.02Q183.008 29.164 182.624 30.796Q182.192 32.524 182.912 33.052Q183.776 33.676 186.8 34.3Q191.264 35.068 192.896 35.788Q196.832 37.564 197.36 41.5Q197.792 44.716 194.96 47.068Q192.8 48.844 189.488 49.516Q186.32 50.236 183.44 49.66ZM270.512 48.46C272.272 49.26 274.336 49.74 276.704 49.9Q279.824 49.948 281.408 49.516Q282.992 49.084 283.808 48.772Q284.624 48.46 285.392 48.028Q286.256 47.548 286.664 46.684Q287.072 45.82 286.736 44.908Q286.4 43.996 285.488 43.564Q284.576 43.132 283.664 43.468Q282.752 43.996 282.128 44.308Q281.504 44.62 280.112 45.004Q278.864 45.292 276.992 45.196Q273.536 44.956 271.544 43.564Q269.552 42.172 268.928 39.724L269.072 39.724Q269.072 39.58 277.712 39.532L285.92 39.388Q286.64 39.388 287.264 39.148Q288.032 38.716 288.416 37.948Q288.8 37.18 288.752 36.268Q288.704 35.596 288.584 35.092Q288.464 34.588 288.32 34.108Q288.176 33.628 287.96 32.956Q287.744 32.284 287.48 31.516Q287.216 30.748 286.016 29.212Q284.624 27.388 282.656 26.212Q280.688 25.036 277.904 24.7Q275.024 24.364 272.48 25.204Q269.936 26.044 268.136 27.604Q266.336 29.164 265.256 31.132Q264.176 33.1 263.84 35.116Q263.552 37.516 263.696 39.028Q263.84 40.54 264.464 42.076Q265.088 43.612 266.48 45.436Q267.872 47.26 270.512 48.46ZM316.304 48.46C318.064 49.26 320.128 49.74 322.496 49.9Q325.616 49.948 327.2 49.516Q328.784 49.084 329.6 48.772Q330.416 48.46 331.184 48.028Q332.048 47.548 332.456 46.684Q332.864 45.82 332.528 44.908Q332.192 43.996 331.28 43.564Q330.368 43.132 329.456 43.468Q328.544 43.996 327.92 44.308Q327.296 44.62 325.904 45.004Q324.656 45.292 322.784 45.196Q319.328 44.956 317.336 43.564Q315.344 42.172 314.72 39.724L314.864 39.724Q314.864 39.58 323.504 39.532L331.712 39.388Q332.432 39.388 333.056 39.148Q333.824 38.716 334.208 37.948Q334.592 37.18 334.544 36.268Q334.496 35.596 334.376 35.092Q334.256 34.588 334.112 34.108Q333.968 33.628 333.752 32.956Q333.536 32.284 333.272 31.516Q333.008 30.748 331.808 29.212Q330.416 27.388 328.448 26.212Q326.48 25.036 323.696 24.7Q320.816 24.364 318.272 25.204Q315.728 26.044 313.928 27.604Q312.128 29.164 311.048 31.132Q309.968 33.1 309.632 35.116Q309.344 37.516 309.488 39.028Q309.632 40.54 310.256 42.076Q310.88 43.612 312.272 45.436Q313.664 47.26 316.304 48.46ZM283.472 34.732Q271.808 34.876 269.024 35.02Q269.84 32.38 272.096 30.724Q274.352 29.068 277.328 29.452Q280.16 29.788 282.08 31.996Q283.04 33.292 283.472 34.732ZM329.264 34.732Q317.6 34.876 314.816 35.02Q315.632 32.38 317.888 30.724Q320.144 29.068 323.12 29.452Q325.952 29.788 327.872 31.996Q328.832 33.292 329.264 34.732Z" />
    </g>
  </g>
</svg>